<?xml version="1.0" encoding="utf-8" standalone="no"?>
<!DOCTYPE svg PUBLIC "-//W3C//DTD SVG 1.1//EN"
  "http://www.w3.org/Graphics/SVG/1.1/DTD/svg11.dtd">
<svg xmlns:xlink="http://www.w3.org/1999/xlink" width="460.8pt" height="345.6pt" viewBox="0 0 460.8 345.6" xmlns="http://www.w3.org/2000/svg" version="1.1">
 <metadata>
  <rdf:RDF xmlns:dc="http://purl.org/dc/elements/1.1/" xmlns:cc="http://creativecommons.org/ns#" xmlns:rdf="http://www.w3.org/1999/02/22-rdf-syntax-ns#">
   <cc:Work>
    <dc:type rdf:resource="http://purl.org/dc/dcmitype/StillImage"/>
    <dc:date>2025-05-30T02:17:12.155357</dc:date>
    <dc:format>image/svg+xml</dc:format>
    <dc:creator>
     <cc:Agent>
      <dc:title>Matplotlib v3.10.0, https://matplotlib.org/</dc:title>
     </cc:Agent>
    </dc:creator>
   </cc:Work>
  </rdf:RDF>
 </metadata>
 <defs>
  <style type="text/css">*{stroke-linejoin: round; stroke-linecap: butt}</style>
 </defs>
 <g id="figure_1">
  <g id="patch_1">
   <path d="M 0 345.6 
L 460.8 345.6 
L 460.8 0 
L 0 0 
z
"/>
  </g>
  <g id="axes_1">
   <g id="line2d_1">
    <path d="M 20.945455 329.890909 
L 39.603852 329.451392 
L 54.077306 328.895658 
L 65.94093 328.223837 
L 76.015794 327.435854 
L 84.792028 326.530899 
L 92.583815 325.507787 
L 99.604801 324.365024 
L 106.009985 323.1002 
L 111.912473 321.710697 
L 117.404426 320.191632 
L 122.552871 318.538682 
L 127.412265 316.746524 
L 132.028689 314.808255 
L 136.439846 312.716104 
L 140.679248 310.460189 
L 144.77622 308.02872 
L 148.755896 305.408393 
L 152.639222 302.585004 
L 156.447144 299.540778 
L 160.196418 296.257637 
L 163.9038 292.714193 
L 167.586048 288.885393 
L 171.259918 284.742205 
L 174.937976 280.256705 
L 178.64117 275.386856 
L 182.386254 270.090909 
L 186.194176 264.316596 
L 190.08588 258.006588 
L 194.094881 251.077174 
L 198.258879 243.429151 
L 202.632333 234.923537 
L 207.299027 225.351712 
L 212.401391 214.366309 
L 218.232664 201.265106 
L 225.685131 183.93695 
L 244.490148 139.969062 
L 250.388447 126.899231 
L 255.524324 116.047039 
L 260.220342 106.633969 
L 264.62312 98.298049 
L 268.820631 90.819529 
L 272.867334 84.057851 
L 276.800929 77.912791 
L 280.650743 72.306215 
L 284.441908 67.173638 
L 288.195371 62.462823 
L 291.927888 58.132072 
L 295.656216 54.144114 
L 299.397112 50.466082 
L 303.167331 47.06934 
L 306.983631 43.929204 
L 310.862768 41.024597 
L 314.821499 38.337668 
L 318.880768 35.850948 
L 323.065712 33.548203 
L 327.397275 31.418936 
L 331.908971 29.449687 
L 336.630124 27.632655 
L 341.602625 25.958508 
L 346.872554 24.420577 
L 352.498559 23.012579 
L 358.547667 21.730474 
L 365.112038 20.569546 
L 372.30059 19.527477 
L 380.268321 18.601062 
L 389.224686 17.788128 
L 399.471305 17.086794 
L 411.460603 16.495618 
L 425.917301 16.013369 
L 439.854545 15.709091 
L 439.854545 15.709091 
" clip-path="url(#p16d8a0501e)" style="fill: none; stroke: #8dd3c7; stroke-width: 10; stroke-linecap: square"/>
   </g>
  </g>
 </g>
 <defs>
  <clipPath id="p16d8a0501e">
   <rect x="0" y="0" width="460.8" height="345.6"/>
  </clipPath>
 </defs>
</svg>
